<?xml version="1.0" encoding="utf-8"?>
<!-- Generator: Adobe Illustrator 24.3.0, SVG Export Plug-In . SVG Version: 6.00 Build 0)  -->
<svg version="1.1" id="Layer_1" xmlns="http://www.w3.org/2000/svg" xmlns:xlink="http://www.w3.org/1999/xlink" x="0px" y="0px"
	 viewBox="0 0 576 576" style="enable-background:new 0 0 576 576;" xml:space="preserve">
<style type="text/css">
	.st0{fill:#F2D0C4;}
</style>
<path class="st0" d="M314,281.5c0.1-2.8-0.8-4-3.6-3.5c-4.4,0.9-4.9-1.7-4.5-5c0.1-1-0.6-2.4,0.9-3c1.6-0.6,1.1-1.9,0.9-2.9
	c-0.2-1.7-1.8-1-2.8-1.1c-4.2-0.1-8.3,0-12.5,0c-3.7,0-3.4,2.1-1.7,3.9c2,2.2,1.3,4.7,0.9,6.8c-0.5,2.6-3.3,0.9-5,1.2
	c-1.2,0.2-3.1,0.5-2.7-1.7s-1.3-4.6,1.4-6.7c1.5-1.2,1.2-3.7-2.1-3.6c-4.2,0.1-8.3,0-12.5,0.1c-1,0-2.5-0.7-2.8,1.1
	c-0.1,1-0.4,2,0.9,3c2.2,1.8,1.2,4.7,0.8,6.8c-0.3,2.1-2.8,1-4.3,0.9c-2.8-0.2-3.6,0.7-3.6,3.6c0.2,8.5,0.2,17,0,25.4
	c0,2.4,0.6,3.1,3.1,3.1c7.5-0.1,15-0.1,22.5-0.1c7.7,0,15.3-0.1,22.9,0.1c2.8,0.1,3.6-0.8,3.6-3.6
	C313.8,298.1,313.8,289.8,314,281.5z M298.9,269.9c4,0,2.9,2.4,3.1,5.1c0.4,1.9-0.2,3.1-3.2,3.2c-3.7,0.1-2.7-2.3-2.8-4.2
	C295.9,271.9,295.3,269.9,298.9,269.9z M302,289c0,1.7,0,3.3,0,5c0,2-0.6,3.8-2.9,3.8c-2.3,0.1-3.1-1.5-3.1-3.6
	c0-3.3,0.1-6.6-0.1-9.9c-0.2-2.7,1.5-2.3,3.2-2.4c2-0.1,3.2,0.2,2.9,2.6C301.8,286.1,302,287.6,302,289z M276.9,269.9
	c4,0,3,2.3,3.1,4.8c0.4,2,0,3.4-3.1,3.4c-3.7,0-2.8-2.2-2.8-4.1C274,272,273.3,269.9,276.9,269.9z M280,289.1c0,1.7,0,3.3,0,5
	c0,2-0.6,3.8-2.9,3.8c-2.3,0.1-3.1-1.5-3.1-3.6c0-3.3,0.1-6.6-0.1-9.9c-0.2-2.7,1.5-2.3,3.2-2.4c2-0.1,3.2,0.3,2.9,2.6
	C279.9,286.1,280,287.6,280,289.1z M310,303c0.1,2.5-0.8,3-3.1,3c-6.3-0.1-12.6,0-18.9,0s-12.6-0.1-18.9,0.1c-2.4,0.1-3.1-0.7-3-3.1
	c0.2-6,0-12,0.1-17.9c0-1.4-0.6-3,2-3c2.5,0,2,1.6,2,3c0,3.3-0.1,6.7,0.1,10c0.2,4.1,3.2,7,6.9,7c3.7,0,6.7-2.9,6.9-7
	c0.2-2.6,0.4-5.4,0-8c-0.9-5.1,1.9-5.2,5.6-5c2,0.1,2.6,0.7,2.5,2.6c-0.1,3.3-0.1,6.6,0,10c0.2,4.5,3.1,7.5,7,7.4
	c3.9,0,6.7-3.1,6.9-7.6c0.1-3.2,0-6.3,0-9.5c0-1.5-0.4-3,2.1-2.9c2.6,0.1,1.9,1.8,1.9,3.1C310,291.1,309.8,297.1,310,303z"/>
</svg>
